<svg width="75" height="75" viewBox="0 0 75 75" fill="none" xmlns="http://www.w3.org/2000/svg">
<circle cx="37.5" cy="37.5" r="37.5" fill="#61837F"/>
<path d="M44.6666 26.6667C44.6666 28.4348 43.9643 30.1305 42.714 31.3807C41.4638 32.631 39.7681 33.3333 38 33.3333C36.2319 33.3333 34.5362 32.631 33.2859 31.3807C32.0357 30.1305 31.3333 28.4348 31.3333 26.6667C31.3333 24.8986 32.0357 23.2029 33.2859 21.9526C34.5362 20.7024 36.2319 20 38 20C39.7681 20 41.4638 20.7024 42.714 21.9526C43.9643 23.2029 44.6666 24.8986 44.6666 26.6667ZM38 38.3333C34.9058 38.3333 31.9383 39.5625 29.7504 41.7504C27.5625 43.9383 26.3333 46.9058 26.3333 50H49.6666C49.6666 46.9058 48.4375 43.9383 46.2496 41.7504C44.0616 39.5625 41.0942 38.3333 38 38.3333Z" stroke="white" stroke-width="4.16667" stroke-linecap="round" stroke-linejoin="round"/>
</svg>
