<svg width="80" height="80" viewBox="0 0 80 80" fill="none" xmlns="http://www.w3.org/2000/svg">
<path fill-rule="evenodd" clip-rule="evenodd" d="M0 40C0 29.452 4.08279 19.8576 10.7543 12.7108V36.8944L35.4175 66.1559H44.0915L68.7547 36.8944V12.1941C75.7163 19.3917 80 29.1956 80 40C80 62.0914 62.0914 80 40 80C17.9086 80 0 62.0914 0 40ZM40 0C47.0187 0 53.6152 1.80771 59.3492 4.98293V34.3863L40.3293 57.5864H39.2842L20.2642 34.3863V5.19977C26.0876 1.89014 32.8231 0 40 0ZM50 24V21H30V24H50Z" fill="#131A28"/>
</svg>
